<svg width="158" height="158" viewBox="0 0 158 158" fill="none" xmlns="http://www.w3.org/2000/svg">
<rect width="158" height="158" fill="black"/>
<path d="M30.2727 95.6C22.4227 95.6 15.5727 91.8 15.4727 83.5L21.9227 82.8C21.9227 87.95 25.4727 90.55 30.3227 90.55C34.7727 90.55 38.3727 89.15 38.3727 85.05C38.3727 80.9 33.6727 81.05 28.4227 79.9C22.0727 78.5 16.4227 76.2 16.4227 69.5C16.4227 62.05 23.2227 59.4 29.5227 59.4C36.9727 59.4 42.8227 62.3 43.6227 70.55L37.2727 71.65C37.0727 66.8 34.2227 64.4 29.4727 64.4C25.9227 64.4 22.7727 65.9 22.7727 69.2C22.7727 72.4 26.6727 73.4 31.5227 74.2C38.8727 75.4 44.7727 77.3 44.7727 84.8C44.7727 93.25 37.5227 95.6 30.2727 95.6ZM50.1934 95V60H63.0434C69.9934 60 76.9934 61.25 76.9934 70.45C76.9934 74.75 74.7434 77.75 71.4934 79.05C74.8434 80.35 76.1434 82.85 76.1434 86.6C76.1434 90.35 76.4934 92.65 78.1434 94.85L78.0934 95H71.3434C70.2434 93.2 69.9434 91.6 69.9434 87C69.9434 82.8 67.9934 81.2 63.0934 81.2H56.4434V95H50.1934ZM56.4434 76.2H62.6434C66.8434 76.2 70.8434 75.7 70.8434 70.7C70.8434 65.3 66.8434 65.05 62.6934 65.05H56.4434V76.2ZM81.8105 80.3V75.2H107.011V80.3H81.8105ZM113.475 95V60H119.725V74.65H135.025V60H141.275V95H135.025V80H119.725V95H113.475Z" fill="white"/>
</svg>
