<svg width="145" height="59" viewBox="0 0 145 59" fill="none" xmlns="http://www.w3.org/2000/svg">
<path d="M10.7039 24.1318C5.47922 24.1318 0.920098 21.6026 0.853542 16.0784L5.14644 15.6125C5.14644 19.0402 7.50919 20.7707 10.7372 20.7707C13.6989 20.7707 16.095 19.8389 16.095 17.1101C16.095 14.348 12.9668 14.4478 9.47261 13.6824C5.24627 12.7506 1.48583 11.2198 1.48583 6.76051C1.48583 1.80206 6.01167 0.038309 10.2047 0.038309C15.1632 0.038309 19.0567 1.96845 19.5892 7.45936L15.3629 8.19148C15.2297 4.96349 13.3329 3.36613 10.1715 3.36613C7.8087 3.36613 5.71217 4.36448 5.71217 6.56084C5.71217 8.69065 8.30787 9.35622 11.5359 9.88867C16.4278 10.6873 20.3546 11.9519 20.3546 16.9437C20.3546 22.5677 15.5292 24.1318 10.7039 24.1318ZM33.2138 24.1318C27.024 24.1318 23.7628 21.3031 23.7628 16.0119V0.437647H27.9225V15.8455C27.9225 19.14 30.252 20.6708 33.2138 20.6708C36.1423 20.6708 38.5383 19.14 38.5383 15.8455V0.437647H42.6981V16.0119C42.6981 21.3031 39.4035 24.1318 33.2138 24.1318ZM47.4912 23.7324V0.437647H53.9472L57.7409 12.4178C58.6394 15.313 59.3382 17.7423 59.7709 19.5061H59.8041C60.27 17.7423 61.102 14.7473 61.8008 12.4511L65.5946 0.437647H72.0173V23.7324H68.0904V10.0551C68.0904 9.22311 68.157 6.16151 68.2235 4.13153H68.157C67.3916 6.79379 66.6595 9.28966 66.2934 10.4211L61.9672 23.7324H57.5079L53.215 10.3546C52.849 9.22311 52.017 6.36118 51.3515 4.13153H51.2849C51.3182 6.16151 51.418 9.32294 51.418 10.1216V23.7324H47.4912ZM76.9996 23.7324V0.437647H83.4556L87.2493 12.4178C88.1478 15.313 88.8467 17.7423 89.2793 19.5061H89.3126C89.7785 17.7423 90.6104 14.7473 91.3093 12.4511L95.103 0.437647H101.526V23.7324H97.5989V10.0551C97.5989 9.22311 97.6654 6.16151 97.732 4.13153H97.6654C96.9 6.79379 96.1679 9.28966 95.8018 10.4211L91.4757 23.7324H87.0164L82.7235 10.3546C82.3574 9.22311 81.5255 6.36118 80.8599 4.13153H80.7934C80.8266 6.16151 80.9265 9.32294 80.9265 10.1216V23.7324H76.9996ZM106.508 23.7324V0.437647H122.315V3.89859H110.668V10.2547H121.084V13.6824H110.668V20.2715H122.315V23.7324H106.508ZM126.267 23.7324V0.437647H134.82C139.445 0.437647 144.104 1.2696 144.104 7.3928C144.104 10.2547 142.607 12.2514 140.444 13.1167C142.673 13.9819 143.538 15.6458 143.538 18.1417C143.538 20.6375 143.771 22.1683 144.87 23.6326L144.836 23.7324H140.344C139.612 22.5344 139.412 21.4695 139.412 18.4079C139.412 15.6125 138.114 14.5476 134.853 14.5476H130.427V23.7324H126.267ZM130.427 11.2198H134.553C137.349 11.2198 140.011 10.887 140.011 7.55919C140.011 3.96514 137.349 3.79875 134.587 3.79875H130.427V11.2198ZM72.1834 57.7324C72.4829 52.1417 75.2117 49.4129 78.9721 47.0501C81.5013 45.4527 83.9639 44.1882 83.9639 41.293C83.9639 39.1964 82.9323 37.832 80.7359 37.832C77.5412 37.832 77.1086 40.4943 77.1418 42.4244L73.0153 41.8254C72.9488 38.3312 75.012 34.5375 80.869 34.5375C85.2285 34.5375 88.0571 37.0666 88.0571 41.3928C88.0571 45.3529 85.5612 47.2831 82.1336 49.4129C79.6377 50.9437 77.6077 52.175 77.042 54.338H88.0904V57.7324H72.1834ZM99.5014 58.1318C93.8774 58.1318 90.9157 54.1051 90.9157 46.318C90.9157 39.3961 93.6777 34.5375 99.5014 34.5375C105.358 34.5375 108.154 39.4294 108.154 46.318C108.154 53.3064 105.358 58.1318 99.5014 58.1318ZM95.142 46.318C95.142 52.0751 96.0072 54.8705 99.5014 54.8705C100.866 54.8705 101.831 54.4379 102.496 53.5726C103.595 52.2082 103.927 49.7456 103.927 46.318C103.927 40.7605 103.095 37.8653 99.5014 37.8653C97.9374 37.8653 96.9057 38.431 96.2402 39.5625C95.4082 40.9269 95.142 43.1898 95.142 46.318ZM110.369 57.7324C110.668 52.1417 113.397 49.4129 117.158 47.0501C119.687 45.4527 122.149 44.1882 122.149 41.293C122.149 39.1964 121.118 37.832 118.921 37.832C115.727 37.832 115.294 40.4943 115.327 42.4244L111.201 41.8254C111.134 38.3312 113.198 34.5375 119.054 34.5375C123.414 34.5375 126.243 37.0666 126.243 41.3928C126.243 45.3529 123.747 47.2831 120.319 49.4129C117.823 50.9437 115.793 52.175 115.227 54.338H126.276V57.7324H110.369ZM136.655 58.1318C132.129 58.1318 128.935 55.4362 128.868 50.8771L132.795 50.2448C132.795 53.2399 134.392 54.8705 136.689 54.8705C139.517 54.8705 140.915 53.2066 140.915 50.2448C140.915 47.4494 139.218 46.1183 136.722 46.1183C135.125 46.1183 133.827 46.684 132.961 47.8155L129.401 47.2165L131.164 34.9368H143.71V38.3312H134.459L133.627 44.2215C134.592 43.2564 135.956 42.7239 137.687 42.7239C141.314 42.7239 144.875 45.0201 144.875 50.3779C144.875 54.7041 142.146 58.1318 136.655 58.1318Z" fill="white"/>
</svg>
